# xmcd
#
# Track frame offsets:
#	150
#	11255
#	24711
#	36716
#	48232
#	58859
#	69235
#	83191
#	93834
#	106666
#	116910
#	128605
#	138183
#	147493
#	156963
#	166797
#
# Disc length: 2367 seconds
#
# Revision: 0
# Processed by: cddbd v1.5.1PL0 Copyright (c) Steve Scherf et al.
# Submitted via: dBpowerAMP V4.0
#
DISCID=d1093d10
DTITLE=Warner Mack - King of Country Blues 
DYEAR=1900
DGENRE=
TTITLE0=where were you
TTITLE1=c o u n t r y blues
TTITLE2=how can i dream
TTITLE3=you taught me how to cry
TTITLE4=stone sober
TTITLE5=who knows what tomorrow will bring
TTITLE6=after the lights go out
TTITLE7=your fool
TTITLE8=where did the loving go
TTITLE9=nothing ain't right
TTITLE10=the way it used to be
TTITLE11=open your eyes 
TTITLE12=funny feelings
TTITLE13=please believe in me
TTITLE14=anything to get to you
TTITLE15=she's got me 
EXTD=
EXTT0=
EXTT1=
EXTT2=
EXTT3=
EXTT4=
EXTT5=
EXTT6=
EXTT7=
EXTT8=
EXTT9=
EXTT10=
EXTT11=
EXTT12=
EXTT13=
EXTT14=
EXTT15=
PLAYORDER=
